Coordinates
version=1
nRows=19
nColumns=24
inDegrees=yes

Units are S.I. units (second, meters, Newtons, ...)
Angles are in degrees.

endheader
time	pelvis_tilt	pelvis_list	pelvis_rotation	pelvis_tx	pelvis_ty	pelvis_tz	hip_flexion_r	hip_adduction_r	hip_rotation_r	knee_angle_r	ankle_angle_r	subtalar_angle_r	mtp_angle_r	hip_flexion_l	hip_adduction_l	hip_rotation_l	knee_angle_l	ankle_angle_l	subtalar_angle_l	mtp_angle_l	lumbar_extension	lumbar_bending	lumbar_rotation
      4.17500000	     -6.78053562	      1.49656905	     -1.49871481	     -1.38133717	      0.00288737	     -0.26421621	     -0.38653548	      3.81920349	      0.78765128	     -5.09233343	      4.92566123	     -6.29434384	      9.85466784	     29.02646970	     -2.18456488	    -11.88383980	    -37.78434708	     19.12860861	     -6.36033125	    -80.14757210	      1.08520978	     -1.62183766	      6.78760277
      4.18000000	     -6.90786605	      1.43033953	     -1.73865383	     -1.37537011	      0.00212815	     -0.26409499	     -0.73001748	      3.90252843	      0.75251157	     -4.91393693	      5.03818957	     -6.19408211	     10.04212019	     29.27594846	     -2.18549335	    -12.03800735	    -36.09757027	     18.82763918	     -6.42418955	    -80.05768392	      1.14626081	     -1.52866245	      7.11689563
      4.18500000	     -6.70643322	      1.44558225	     -2.02801854	     -1.36923619	      0.00165552	     -0.26399769	     -1.45580678	      3.85685795	      0.53224950	     -4.68446969	      5.18198012	     -5.70762503	     10.99981897	     29.08036163	     -2.12072407	    -12.34914020	    -34.30919277	     18.49707399	     -6.41313847	    -79.55452284	      0.87968785	     -1.51326097	      7.45297225
      4.19000000	     -6.83560920	      1.41160395	     -2.32483985	     -1.36311708	      0.00076923	     -0.26381082	     -1.79638581	      3.89231130	      0.60037327	     -4.53324407	      5.35918922	     -5.54811241	     11.25864695	     29.25898083	     -2.13885111	    -12.65143910	    -32.53039856	     18.09374003	     -6.45804294	    -79.40707035	      0.96857543	     -1.45192805	      7.74082421
      4.19500000	     -6.69328137	      1.41844449	     -2.62917476	     -1.35694869	      0.00012933	     -0.26357913	     -2.42818406	      3.86744183	      0.44810514	     -4.37852589	      5.54526150	     -5.19332467	     11.79009453	     29.08399827	     -2.12155060	    -13.06013270	    -30.67384742	     17.66260127	     -6.40505974	    -79.06316002	      0.76900192	     -1.45185259	      8.07624104
      4.20000000	     -6.65000107	      1.40332944	     -2.91316073	     -1.35074122	     -0.00068919	     -0.26343966	     -2.95118101	      3.86052194	      0.37617856	     -4.24146772	      5.74112818	     -4.90498291	     12.27697873	     29.00429343	     -2.10534991	    -13.41305722	    -28.79419537	     17.17770623	     -6.40834119	    -78.74564226	      0.68294624	     -1.41694388	      8.38148847
      4.20500000	     -6.59677479	      1.38196714	     -3.19407645	     -1.34452069	     -0.00154298	     -0.26330328	     -3.47947875	      3.85539505	      0.33292638	     -4.12268952	      5.94604742	     -4.63768415	     12.68351487	     28.88883085	     -2.09792313	    -13.79482740	    -26.88375438	     16.69609803	     -6.35742303	    -78.50028060	      0.58757187	     -1.37798606	      8.68138793
      4.21000000	     -6.69072630	      1.35194541	     -3.45400703	     -1.33830550	     -0.00257726	     -0.26317715	     -3.82851749	      3.87201817	      0.36521291	     -4.05115309	      6.16034461	     -4.51438215	     12.84768624	     28.92443566	     -2.09758176	    -14.14282817	    -24.96014964	     16.19931552	     -6.29566878	    -78.43408869	      0.64847759	     -1.33142367	      8.95553965
      4.21500000	     -6.45348186	      1.40215576	     -3.74043326	     -1.33203164	     -0.00323869	     -0.26301153	     -4.55023858	      3.76150542	      0.28003255	     -3.94726688	      6.41349070	     -4.10635516	     13.22587607	     28.53068678	     -2.02467800	    -14.73059144	    -22.96057860	     15.79497133	     -5.99111909	    -78.30537440	      0.36465354	     -1.38393404	      9.26339443
      4.22000000	     -6.38800851	      1.46720934	     -4.00754411	     -1.32576189	     -0.00407346	     -0.26288847	     -5.05396650	      3.64467234	      0.24131533	     -3.90228639	      6.66443843	     -3.82689553	     13.52121106	     28.31637401	     -1.92712214	    -15.31374887	    -20.95707115	     15.40961266	     -5.66576723	    -78.26374758	      0.26979108	     -1.44731963	      9.53157667
      4.22500000	     -6.28253074	      1.58586460	     -4.24823531	     -1.31949278	     -0.00482459	     -0.26275550	     -5.59403389	      3.46212780	      0.17738519	     -3.86264450	      6.92355938	     -3.51543280	     13.80085413	     28.04392129	     -1.76916475	    -15.99034883	    -18.95932498	     15.10644267	     -5.12519977	    -78.29458224	      0.13055157	     -1.57858402	      9.75631193
      4.23000000	     -6.15274727	      1.73723638	     -4.45063291	     -1.31323420	     -0.00551940	     -0.26267215	     -6.14719704	      3.23764155	      0.05703651	     -3.84058979	      7.18204483	     -3.17885080	     14.08970245	     27.73975294	     -1.55682527	    -16.74469244	    -16.97852038	     14.89333087	     -4.38956989	    -78.41179062	     -0.03359356	     -1.75164160	      9.93517305
      4.23500000	     -6.02392475	      1.90495262	     -4.63417552	     -1.30696798	     -0.00620217	     -0.26264098	     -6.68628934	      2.98842862	     -0.08369668	     -3.83990565	      7.43782257	     -2.82371325	     14.38325819	     27.43288209	     -1.31277883	    -17.57490939	    -15.02515827	     14.76058733	     -3.46025654	    -78.64251993	     -0.19601189	     -1.94257941	     10.08327667
      4.24000000	     -5.86909107	      2.08209115	     -4.80100339	     -1.30066642	     -0.00686425	     -0.26266934	     -7.24261041	      2.72022762	     -0.27312073	     -3.85834407	      7.68696870	     -2.44415131	     14.70757690	     27.09049724	     -1.03750466	    -18.47346753	    -13.09799432	     14.71516150	     -2.32694533	    -79.06224531	     -0.38058414	     -2.14318726	     10.21061723
      4.24500000	     -5.71594726	      2.25195812	     -4.95851398	     -1.29430867	     -0.00755213	     -0.26277982	     -7.79341049	      2.44829578	     -0.45947763	     -3.89127541	      7.92753866	     -2.04204620	     15.05001906	     26.74701562	     -0.74951083	    -19.42423381	    -11.21095331	     14.74008771	     -1.00545700	    -79.71457066	     -0.55851859	     -2.33184373	     10.31177385
      4.25000000	     -5.58083823	      2.43196020	     -5.08709407	     -1.28782900	     -0.00831235	     -0.26301036	     -8.31662023	      2.15262490	     -0.81048442	     -3.90975542	      7.99272717	     -1.59648367	     16.42608342	     26.36196138	     -0.40182749	    -20.16872844	     -9.16324493	     15.13827813	      0.07824586	    -84.28657728	     -0.69889751	     -2.52303202	     10.34961528
      4.25500000	     -5.44370780	      2.52484234	     -5.22095616	     -1.28134787	     -0.00912908	     -0.26327603	     -8.85002819	      1.95595941	     -0.91918879	     -3.97828800	      8.18986161	     -1.33000033	     16.49866278	     26.05871380	     -0.15531495	    -21.15688769	     -7.44924767	     15.24167090	      1.78591898	    -84.82988231	     -0.85292019	     -2.61838261	     10.41525016
      4.26000000	     -5.28159140	      2.62984570	     -5.33186348	     -1.27472355	     -0.00998448	     -0.26365424	     -9.40833512	      1.72854900	     -1.14399703	     -4.05431978	      8.36791956	     -0.92742441	     16.98988657	     25.66448466	      0.15523155	    -21.89171525	     -5.56952861	     15.62062166	      3.14036489	    -89.28970169	     -1.01429887	     -2.72046645	     10.42127285
      4.26500000	     -5.21169802	      2.67462815	     -5.46560316	     -1.26815520	     -0.01095019	     -0.26406971	     -9.83421549	      1.57020637	     -1.22884833	     -4.20541256	      8.54580355	     -0.65813162	     17.12271830	     25.46287792	      0.37715593	    -22.69682772	     -4.05086130	     15.74468290	      4.92097831	    -89.99663034	     -1.09179555	     -2.74853998	     10.51213211
